# generated from PmQm by Jehee Lee
:FULLY-SPECIFIED
:DEGREES
86
root -45.16137479 37.09435236 -90.69344378 -1.487743231 66.89956203 -2.789832268
RightUpLeg 11.21416214 0.9244868199 -9.289614808
RightLeg 67.28957244 3.803704334 -7.844737251
RightFoot 4.406870492 7.45193855 7.759278597
RightToes 1.92085e-009 -1.59028e-015 9.93923e-017
Spine -7.194209271 9.133769886 10.24294128
Spine1 18.90625066 10.60225775 -10.44212262
HEad -10.11095732 -8.75875938 4.768379351
LeftShoulder1 9.93923e-017 0 1.22299e-017
LeftArm 61.37806467 68.29342863 -12.24106018
LeftForeArm -36.60107906 -63.04252638 48.0251504
LeftHand 0.8779579247 6.084352047 -2.29369254
RightShoulder 1.98785e-016 -4.96962e-017 1.55301e-017
RightArm 12.57175414 -36.02268643 93.25100179
RightForeArm -87.88221174 58.2003707 -129.6315086
RightHand 1.277217998 -11.31207778 -5.328570628
LeftUpLeg -38.02396034 -2.924035663 4.205364453
LeftLeg 21.57752674 -2.557627722 -2.717674359
LeftFoot -1.155549241 1.436385487 -4.482314422
LeftToes 4.31103e-010 -3.63601e-011 9.64948e-011
87
root -42.88303898 35.68569405 -89.9710827 3.914371583 68.17142802 5.162121133
RightUpLeg 8.56059483 2.499038054 -11.70309987
RightLeg 79.79522062 6.729200436 -7.527028232
RightFoot 3.590568571 5.999946141 7.802532528
RightToes 1.92085e-009 -1.59028e-015 9.93923e-017
Spine -4.850394651 7.563718597 4.89107197
Spine1 19.28975567 8.847609767 -9.001841359
HEad -13.31569346 -7.569217055 5.819107247
LeftShoulder1 9.93923e-017 0 1.22299e-017
LeftArm 46.55497021 66.58113114 -26.06792279
LeftForeArm -32.64487528 -59.65031233 42.24659387
LeftHand 0.8238009025 5.792318406 -0.8711141166
RightShoulder 1.98785e-016 -4.96962e-017 1.55301e-017
RightArm 10.21221528 -36.44307218 95.10182113
RightForeArm -76.45950186 60.61308181 -116.5555757
RightHand 1.293511271 -11.44667316 -5.265681839
LeftUpLeg -40.99576103 -6.751373626 1.60453075
LeftLeg 34.6522648 0 0
LeftFoot 4.32228053 -0.1004285215 2.53848043
LeftToes 4.31103e-010 -3.63601e-011 9.64948e-011
88
root -40.95500119 34.7385 -89.31940981 11.30425546 69.8069914 14.60442852
RightUpLeg 2.429030184 3.56112664 -12.87095669
RightLeg 91.66481031 8.975849361 -5.774927392
RightFoot 3.668177335 4.861684395 6.866057687
RightToes 1.92085e-009 -1.59028e-015 9.93923e-017
Spine -1.76359 5.54142 0.445052
Spine1 19.388 7.09464 -9.46007
HEad -15.9798 -6.43844 7.06551
LeftShoulder1 9.93923e-017 0 1.22299e-017
LeftArm 27.5346 59.4775 -46.8303
LeftForeArm -23.1031 -48.2643 30.5749
LeftHand 0.603935 4.59527 1.77822
RightShoulder 1.98785e-016 -4.96962e-017 1.55301e-017
RightArm 6.91943 -37.1641 97.5636
RightForeArm -53.7467 61.2168 -90.1005
RightHand 1.48757 -11.8333 -8.11327
LeftUpLeg -42.4702934 -7.486773818 -1.441077408
LeftLeg 46.55439867 0 0
LeftFoot 0.1636319267 -1.362080806 7.665407354
LeftToes 4.31103e-010 -3.63601e-011 9.64948e-011
89
root -39.23032923 34.4764 -88.68176511 16.42229304 70.93715372 20.69288587
RightUpLeg -7.038106666 4.928486389 -11.42030135
RightLeg 99.98647015 9.95063448 -3.571282526
RightFoot 2.919343057 4.199867443 4.294833242
RightToes 1.92085e-009 -1.59028e-015 9.93923e-017
Spine 0.834806 3.80283 -1.94337
Spine1 18.6724 5.69379 -11.1022
HEad -15.4575 -5.19506 7.38539
LeftShoulder1 9.93923e-017 0 1.22299e-017
LeftArm 17.1615 48.5474 -63.0371
LeftForeArm -21.1744 -32.7597 21.4772
LeftHand 0.421389 3.80412 3.73643
RightShoulder 1.98785e-016 -4.96962e-017 1.55301e-017
RightArm 5.54834 -38.3885 98.8781
RightForeArm -31.476 54.1963 -58.6071
RightHand 1.84564 -12.435 -12.7878
LeftUpLeg -41.20845081 -6.143796582 -3.453914401
LeftLeg 53.12658458 0 0
LeftFoot -8.599749775 -2.967217602 8.293417436
LeftToes 4.31103e-010 -3.63601e-011 9.64948e-011
90
root -37.36113691 34.759 -87.99371031 18.67750877 71.88150972 23.30783702
RightUpLeg -16.4783078 6.035745229 -9.273540874
RightLeg 101.6832852 10.199656 -2.830272783
RightFoot 0.7787815417 3.557976897 2.856417935
RightToes 1.92085e-009 -1.59028e-015 9.93923e-017
Spine 2.25229 2.03784 -4.43131
Spine1 16.6273 3.58868 -10.8015
HEad -12.311 -2.88336 6.48793
LeftShoulder1 9.93923e-017 0 1.22299e-017
LeftArm 12.575 40.3304 -73.2559
LeftForeArm -27.1404 -24.5831 16.99
LeftHand 0.449428 3.95005 3.64466
RightShoulder 1.98785e-016 -4.96962e-017 1.55301e-017
RightArm 10.5199 -39.5761 97.8603
RightForeArm -24.1899 40.1004 -36.9763
RightHand 2.0683 -12.7359 -15.5064
LeftUpLeg -37.32441378 -4.363356828 -4.287379491
LeftLeg 54.41640411 0 0
LeftFoot -14.44989575 -5.42940973 6.905974038
LeftToes 4.31103e-010 -3.63601e-011 9.64948e-011
91
root -35.36794413 35.484 -87.31726632 19.73383604 73.32307011 24.47509967
RightUpLeg -23.78010006 5.548998355 -7.777848315
RightLeg 96.67489956 10.11549886 -3.556239169
RightFoot -1.397238655 2.783776337 3.881712655
RightToes 1.92085e-009 -1.59028e-015 9.93923e-017
Spine 2.75862 0.0199756 -7.33258
Spine1 14.3038 0.594855 -7.81834
HEad -9.64344 0.18635 5.21403
LeftShoulder1 9.93923e-017 0 1.22299e-017
LeftArm 11.5893 35.7003 -79.7857
LeftForeArm -33.1365 -25.388 17.5359
LeftHand 0.495159 4.12834 3.09724
RightShoulder 1.98785e-016 -4.96962e-017 1.55301e-017
RightArm 23.6727 -41.0074 94.8775
RightForeArm -30.2926 26.2228 -25.0024
RightHand 2.08918 -12.8132 -15.551
LeftUpLeg -32.11160593 -5.041650473 -4.35931065
LeftLeg 52.33381 0 0
LeftFoot -16.28608963 -6.6474939 6.199899115
LeftToes 4.31103e-010 -3.63601e-011 9.64948e-011
92
root -33.37084546 36.4872 -86.6929086 17.8958734 75.39708829 22.38034203
RightUpLeg -28.78761978 4.132521723 -5.868569055
RightLeg 86.96826518 9.402560546 -4.453364732
RightFoot -2.937769773 2.149957469 5.639202685
RightToes 1.92085e-009 -1.59028e-015 9.93923e-017
Spine 2.65149 -1.83324 -7.91497
Spine1 12.9002 -1.92012 -4.98576
HEad -9.01578 2.40643 4.21475
LeftShoulder1 9.93923e-017 0 1.22299e-017
LeftArm 13.1231 31.4326 -83.7338
LeftForeArm -30.8055 -30.6231 19.9606
LeftHand 0.535739 4.22888 2.19231
RightShoulder 1.98785e-016 -4.96962e-017 1.55301e-017
RightArm 31.1444 -44.1055 89.5196
RightForeArm -35.6335 19.6573 -15.3655
RightHand 2.16546 -13.4306 -14.4835
LeftUpLeg -26.55895553 -8.440980149 -3.435519375
LeftLeg 48.49209154 0 0
LeftFoot -17.71944715 -6.063487322 5.443666176
LeftToes 4.31103e-010 -3.63601e-011 9.64948e-011
93
root -31.36343953 37.5319 -86.10293378 8.308306623 77.27878779 12.27808404
RightUpLeg -31.55089811 3.466081328 -2.589727873
RightLeg 74.57604816 8.22934788 -4.509396529
RightFoot -3.99072648 1.836285157 6.260184792
RightToes 1.92085e-009 -1.59028e-015 9.93923e-017
Spine 2.17032 -2.95224 -4.98695
Spine1 12.1189 -3.19051 -3.53691
HEad -9.31077 3.21104 3.29129
LeftShoulder1 9.93923e-017 0 1.22299e-017
LeftArm 16.173 26.4803 -86.5182
LeftForeArm -23.5617 -36.5764 23.1753
LeftHand 0.657022 4.67275 -0.0796694
RightShoulder 1.98785e-016 -4.96962e-017 1.55301e-017
RightArm 14.9557 -48.9955 79.7941
RightForeArm -21.8091 16.506 -3.17483
RightHand 2.27926 -14.5433 -12.6417
LeftUpLeg -20.63641542 -12.20885386 -1.244749556
LeftLeg 43.23367427 0 0
LeftFoot -19.15872083 -4.702333758 3.746816351
LeftToes 4.31103e-010 -3.63601e-011 9.64948e-011
94
root -29.39204047 38.3861 -85.51778371 -5.460355081 78.24750502 -1.792410958
RightUpLeg -32.28514031 3.374706043 0.6812876813
RightLeg 61.24691101 7.486006158 -3.22244334
RightFoot -4.206112195 1.758839324 5.904415854
RightToes 1.92085e-009 -1.59028e-015 9.93923e-017
Spine 2.08058 -3.52577 -1.99479
Spine1 11.2319 -4.10522 -1.42656
HEad -9.35959 3.6634 2.25047
LeftShoulder1 9.93923e-017 0 1.22299e-017
LeftArm 17.6447 22.1579 -88.8265
LeftForeArm -19.1482 -43.4685 27.4368
LeftHand 0.809152 5.3429 -3.73023
RightShoulder 1.98785e-016 -4.96962e-017 1.55301e-017
RightArm 15.2108 -54.5311 67.0619
RightForeArm -24.0778 14.9722 -0.470143
RightHand 2.25039 -15.3597 -10.2062
LeftUpLeg -14.49749422 -15.21805874 0.8446210733
LeftLeg 37.34798315 0 0
LeftFoot -18.60963449 -2.989562963 2.303631657
LeftToes 4.31103e-010 -3.63601e-011 9.64948e-011
95
root -27.46665927 38.9549 -84.96149137 -13.42292727 79.17339295 -9.762866438
RightUpLeg -31.722402 2.899984272 2.063783518
RightLeg 48.03878891 8.266591165 -0.8645587379
RightFoot -3.488564883 1.711398359 5.941743205
RightToes 1.92085e-009 -1.59028e-015 9.93923e-017
Spine 2.02091 -4.08838 -2.29251
Spine1 10.7795 -5.42294 2.02762
HEad -9.46749 4.63187 1.66105
LeftShoulder1 9.93923e-017 0 1.22299e-017
LeftArm 17.7267 18.8515 -89.9496
LeftForeArm -23.2256 -51.9579 33.7929
LeftHand 0.949633 6.39518 -7.86071
RightShoulder 1.98785e-016 -4.96962e-017 1.55301e-017
RightArm 30.0932 -58.0633 52.328
RightForeArm -31.9796 16.219 -1.95076
RightHand 2.0389 -15.3336 -7.67257
LeftUpLeg -8.739032977 -15.76373474 1.452489534
LeftLeg 32.38294936 0 0
LeftFoot -16.89969317 -3.353655726 2.70644277
LeftToes 4.31103e-010 -3.63601e-011 9.64948e-011
